CSLSans-SemiBold.ufo
<glyph name="numbersign" format="2">
  <advance width="663"/>
  <unicode hex="0023"/>
  <outline>
    <contour>
      <point x="396" y="264" type="line"/>
      <point x="426" y="434" type="line"/>
      <point x="267" y="434" type="line"/>
      <point x="237" y="264" type="line"/>
    </contour>
    <contour>
      <point x="432" y="0" type="line"/>
      <point x="351" y="0" type="line"/>
      <point x="383" y="185" type="line"/>
      <point x="224" y="185" type="line"/>
      <point x="192" y="0" type="line"/>
      <point x="109" y="0" type="line"/>
      <point x="141" y="185" type="line"/>
      <point x="30" y="185" type="line"/>
      <point x="30" y="264" type="line"/>
      <point x="155" y="264" type="line"/>
      <point x="184" y="434" type="line"/>
      <point x="73" y="434" type="line"/>
      <point x="73" y="513" type="line"/>
      <point x="198" y="513" type="line"/>
      <point x="230" y="698" type="line"/>
      <point x="312" y="698" type="line"/>
      <point x="280" y="513" type="line"/>
      <point x="439" y="513" type="line"/>
      <point x="471" y="698" type="line"/>
      <point x="553" y="698" type="line"/>
      <point x="521" y="513" type="line"/>
      <point x="632" y="513" type="line"/>
      <point x="632" y="434" type="line"/>
      <point x="507" y="434" type="line"/>
      <point x="478" y="264" type="line"/>
      <point x="589" y="264" type="line"/>
      <point x="589" y="185" type="line"/>
      <point x="464" y="185" type="line"/>
    </contour>
  </outline>
</glyph>
<glyph name="period" format="2">
  <advance width="300"/>
  <unicode hex="002E"/>
  <outline>
    <contour>
      <point x="149" y="-12" type="qcurve" smooth="yes"/>
      <point x="107" y="-12"/>
      <point x="71" y="30"/>
      <point x="71" y="60" type="qcurve" smooth="yes"/>
      <point x="71" y="77" type="line" smooth="yes"/>
      <point x="71" y="106"/>
      <point x="107" y="149"/>
      <point x="149" y="149" type="qcurve" smooth="yes"/>
      <point x="188" y="149"/>
      <point x="227" y="108"/>
      <point x="227" y="77" type="qcurve" smooth="yes"/>
      <point x="227" y="60" type="line" smooth="yes"/>
      <point x="227" y="30"/>
      <point x="191" y="-12"/>
    </contour>
  </outline>
</glyph>
<glyph name="eight" format="2">
  <advance width="600"/>
  <unicode hex="0038"/>
  <outline>
    <contour>
      <point x="300" y="91" type="qcurve"/>
      <point x="418" y="96"/>
      <point x="418" y="190" type="qcurve" smooth="yes"/>
      <point x="418" y="211" type="line"/>
      <point x="414" y="310"/>
      <point x="300" y="310" type="qcurve"/>
      <point x="182" y="306"/>
      <point x="182" y="211" type="qcurve" smooth="yes"/>
      <point x="182" y="190" type="line"/>
      <point x="186" y="91"/>
    </contour>
    <contour>
      <point x="300" y="408" type="qcurve"/>
      <point x="409" y="412"/>
      <point x="409" y="500" type="qcurve" smooth="yes"/>
      <point x="409" y="516" type="line"/>
      <point x="407" y="607"/>
      <point x="300" y="607" type="qcurve" smooth="yes"/>
      <point x="247" y="607"/>
      <point x="191" y="559"/>
      <point x="191" y="516" type="qcurve" smooth="yes"/>
      <point x="191" y="500" type="line"/>
      <point x="194" y="408"/>
    </contour>
    <contour>
      <point x="300" y="-12" type="qcurve" smooth="yes"/>
      <point x="179" y="-12"/>
      <point x="45" y="103"/>
      <point x="45" y="191" type="qcurve" smooth="yes"/>
      <point x="45" y="259"/>
      <point x="119" y="344"/>
      <point x="183" y="361" type="qcurve"/>
      <point x="183" y="369" type="line"/>
      <point x="130" y="388"/>
      <point x="66" y="468"/>
      <point x="66" y="529" type="qcurve" smooth="yes"/>
      <point x="66" y="609"/>
      <point x="188" y="710"/>
      <point x="300" y="710" type="qcurve" smooth="yes"/>
      <point x="413" y="710"/>
      <point x="534" y="609"/>
      <point x="534" y="529" type="qcurve" smooth="yes"/>
      <point x="534" y="468"/>
      <point x="470" y="388"/>
      <point x="417" y="369" type="qcurve"/>
      <point x="417" y="361" type="line"/>
      <point x="481" y="344"/>
      <point x="555" y="259"/>
      <point x="555" y="191" type="qcurve" smooth="yes"/>
      <point x="555" y="103"/>
      <point x="422" y="-12"/>
    </contour>
  </outline>
</glyph>
<glyph name="semicolon" format="2">
  <advance width="300"/>
  <unicode hex="003B"/>
  <outline>
    <contour>
      <point x="127" y="-141" type="qcurve"/>
      <point x="39" y="-141" type="line"/>
      <point x="106" y="-81"/>
      <point x="129" y="-9" type="qcurve"/>
      <point x="72" y="4"/>
      <point x="72" y="60" type="qcurve" smooth="yes"/>
      <point x="72" y="77" type="line" smooth="yes"/>
      <point x="72" y="108"/>
      <point x="108" y="149"/>
      <point x="150" y="149" type="qcurve" smooth="yes"/>
      <point x="191" y="149"/>
      <point x="228" y="107"/>
      <point x="228" y="77" type="qcurve" smooth="yes"/>
      <point x="228" y="42"/>
      <point x="218" y="-12"/>
      <point x="201" y="-48" type="qcurve"/>
      <point x="173" y="-103"/>
    </contour>
    <contour>
      <point x="150" y="369" type="qcurve" smooth="yes"/>
      <point x="108" y="369"/>
      <point x="72" y="410"/>
      <point x="72" y="441" type="qcurve" smooth="yes"/>
      <point x="72" y="458" type="line" smooth="yes"/>
      <point x="72" y="487"/>
      <point x="108" y="530"/>
      <point x="150" y="530" type="qcurve" smooth="yes"/>
      <point x="190" y="530"/>
      <point x="228" y="488"/>
      <point x="228" y="458" type="qcurve" smooth="yes"/>
      <point x="228" y="441" type="line" smooth="yes"/>
      <point x="228" y="410"/>
      <point x="192" y="369"/>
    </contour>
  </outline>
</glyph>
<glyph name="d" format="2">
  <advance width="597"/>
  <unicode hex="0064"/>
  <outline>
    <contour>
      <point x="289" y="91" type="qcurve" smooth="yes"/>
      <point x="338" y="91"/>
      <point x="400" y="137"/>
      <point x="400" y="182" type="qcurve" smooth="yes"/>
      <point x="400" y="346" type="line" smooth="yes"/>
      <point x="400" y="388"/>
      <point x="333" y="431"/>
      <point x="289" y="431" type="qcurve" smooth="yes"/>
      <point x="230" y="431"/>
      <point x="174" y="356"/>
      <point x="174" y="300" type="qcurve" smooth="yes"/>
      <point x="174" y="216" type="line" smooth="yes"/>
      <point x="174" y="162"/>
      <point x="233" y="91"/>
    </contour>
    <contour>
      <point x="251" y="-12" type="qcurve" smooth="yes"/>
      <point x="145" y="-12"/>
      <point x="46" y="136"/>
      <point x="46" y="261" type="qcurve" smooth="yes"/>
      <point x="46" y="386"/>
      <point x="146" y="534"/>
      <point x="251" y="534" type="qcurve" smooth="yes"/>
      <point x="300" y="534"/>
      <point x="378" y="484"/>
      <point x="395" y="435" type="qcurve"/>
      <point x="400" y="435" type="line"/>
      <point x="400" y="740" type="line"/>
      <point x="522" y="740" type="line"/>
      <point x="522" y="0" type="line"/>
      <point x="400" y="0" type="line"/>
      <point x="400" y="87" type="line"/>
      <point x="395" y="87" type="line"/>
      <point x="375" y="36"/>
      <point x="299" y="-12"/>
    </contour>
  </outline>
</glyph>
<glyph name="k" format="2">
  <advance width="557"/>
  <unicode hex="006B"/>
  <outline>
    <contour>
      <point x="551" y="0" type="line"/>
      <point x="406" y="0" type="line"/>
      <point x="267" y="239" type="line"/>
      <point x="197" y="163" type="line"/>
      <point x="197" y="0" type="line"/>
      <point x="75" y="0" type="line"/>
      <point x="75" y="740" type="line"/>
      <point x="197" y="740" type="line"/>
      <point x="197" y="292" type="line"/>
      <point x="202" y="292" type="line"/>
      <point x="272" y="386" type="line"/>
      <point x="390" y="522" type="line"/>
      <point x="530" y="522" type="line"/>
      <point x="350" y="321" type="line"/>
    </contour>
  </outline>
</glyph>
<glyph name="yen" format="2">
  <advance width="631"/>
  <unicode hex="00A5"/>
  <outline>
    <contour>
      <point x="378" y="0" type="line"/>
      <point x="252" y="0" type="line"/>
      <point x="252" y="138" type="line"/>
      <point x="81" y="138" type="line"/>
      <point x="81" y="219" type="line"/>
      <point x="252" y="219" type="line"/>
      <point x="252" y="298" type="line"/>
      <point x="81" y="298" type="line"/>
      <point x="81" y="379" type="line"/>
      <point x="201" y="379" type="line"/>
      <point x="25" y="698" type="line"/>
      <point x="168" y="698" type="line"/>
      <point x="320" y="408" type="line"/>
      <point x="323" y="408" type="line"/>
      <point x="471" y="698" type="line"/>
      <point x="607" y="698" type="line"/>
      <point x="430" y="379" type="line"/>
      <point x="549" y="379" type="line"/>
      <point x="549" y="298" type="line"/>
      <point x="378" y="298" type="line"/>
      <point x="378" y="219" type="line"/>
      <point x="549" y="219" type="line"/>
      <point x="549" y="138" type="line"/>
      <point x="378" y="138" type="line"/>
    </contour>
  </outline>
</glyph>
<glyph name="brokenbar" format="2">
  <advance width="369"/>
  <unicode hex="00A6"/>
  <outline>
    <contour>
      <point x="237" y="-138" type="line"/>
      <point x="133" y="-138" type="line"/>
      <point x="133" y="219" type="line"/>
      <point x="237" y="219" type="line"/>
    </contour>
    <contour>
      <point x="237" y="403" type="line"/>
      <point x="133" y="403" type="line"/>
      <point x="133" y="760" type="line"/>
      <point x="237" y="760" type="line"/>
    </contour>
  </outline>
</glyph>
<glyph name="multiply" format="2">
  <advance width="600"/>
  <unicode hex="00D7"/>
  <outline>
    <contour>
      <point x="446" y="79" type="line"/>
      <point x="300" y="231" type="line"/>
      <point x="154" y="79" type="line"/>
      <point x="84" y="148" type="line"/>
      <point x="231" y="301" type="line"/>
      <point x="84" y="454" type="line"/>
      <point x="154" y="523" type="line"/>
      <point x="300" y="371" type="line"/>
      <point x="446" y="523" type="line"/>
      <point x="516" y="454" type="line"/>
      <point x="369" y="301" type="line"/>
      <point x="516" y="148" type="line"/>
    </contour>
  </outline>
</glyph>
<glyph name="ograve" format="2">
  <advance width="564"/>
  <unicode hex="00F2"/>
  <outline>
    <contour>
      <point x="282" y="87" type="qcurve" smooth="yes"/>
      <point x="395" y="87"/>
      <point x="395" y="226" type="qcurve" smooth="yes"/>
      <point x="395" y="308" type="line" smooth="yes"/>
      <point x="395" y="375"/>
      <point x="331" y="435"/>
      <point x="282" y="435" type="qcurve" smooth="yes"/>
      <point x="169" y="435"/>
      <point x="169" y="296" type="qcurve" smooth="yes"/>
      <point x="169" y="214" type="line" smooth="yes"/>
      <point x="169" y="149"/>
      <point x="229" y="87"/>
    </contour>
    <contour>
      <point x="282" y="-12" type="qcurve" smooth="yes"/>
      <point x="167" y="-12"/>
      <point x="41" y="141"/>
      <point x="41" y="261" type="qcurve" smooth="yes"/>
      <point x="41" y="388"/>
      <point x="172" y="534"/>
      <point x="282" y="534" type="qcurve" smooth="yes"/>
      <point x="391" y="534"/>
      <point x="523" y="387"/>
      <point x="523" y="261" type="qcurve" smooth="yes"/>
      <point x="523" y="139"/>
      <point x="394" y="-12"/>
    </contour>
    <contour>
      <point x="269" y="581" type="line"/>
      <point x="146" y="751" type="line"/>
      <point x="250" y="802" type="line"/>
      <point x="344" y="617" type="line"/>
    </contour>
  </outline>
</glyph>
<glyph name="otilde" format="2">
  <advance width="564"/>
  <unicode hex="00F5"/>
  <outline>
    <contour>
      <point x="282" y="87" type="qcurve" smooth="yes"/>
      <point x="395" y="87"/>
      <point x="395" y="226" type="qcurve" smooth="yes"/>
      <point x="395" y="308" type="line" smooth="yes"/>
      <point x="395" y="375"/>
      <point x="331" y="435"/>
      <point x="282" y="435" type="qcurve" smooth="yes"/>
      <point x="169" y="435"/>
      <point x="169" y="296" type="qcurve" smooth="yes"/>
      <point x="169" y="214" type="line" smooth="yes"/>
      <point x="169" y="149"/>
      <point x="229" y="87"/>
    </contour>
    <contour>
      <point x="282" y="-12" type="qcurve" smooth="yes"/>
      <point x="167" y="-12"/>
      <point x="41" y="141"/>
      <point x="41" y="261" type="qcurve" smooth="yes"/>
      <point x="41" y="388"/>
      <point x="172" y="534"/>
      <point x="282" y="534" type="qcurve" smooth="yes"/>
      <point x="391" y="534"/>
      <point x="523" y="387"/>
      <point x="523" y="261" type="qcurve" smooth="yes"/>
      <point x="523" y="139"/>
      <point x="394" y="-12"/>
    </contour>
    <contour>
      <point x="357" y="605" type="qcurve" smooth="yes"/>
      <point x="337" y="605"/>
      <point x="306" y="615"/>
      <point x="280" y="628"/>
      <point x="267" y="633" type="qcurve"/>
      <point x="232" y="651"/>
      <point x="204" y="651" type="qcurve" smooth="yes"/>
      <point x="185" y="651"/>
      <point x="159" y="636"/>
      <point x="145" y="625" type="qcurve"/>
      <point x="101" y="682" type="line"/>
      <point x="138" y="742"/>
      <point x="207" y="742" type="qcurve" smooth="yes"/>
      <point x="228" y="742"/>
      <point x="260" y="731"/>
      <point x="285" y="718"/>
      <point x="297" y="714" type="qcurve"/>
      <point x="331" y="696"/>
      <point x="360" y="696" type="qcurve" smooth="yes"/>
      <point x="377" y="696"/>
      <point x="403" y="708"/>
      <point x="419" y="722" type="qcurve"/>
      <point x="463" y="665" type="line"/>
      <point x="425" y="605"/>
    </contour>
  </outline>
</glyph>
<glyph name="aogonek" format="2">
  <advance width="543"/>
  <unicode hex="0105"/>
  <outline>
    <contour>
      <point x="243" y="78" type="qcurve" smooth="yes"/>
      <point x="287" y="78"/>
      <point x="351" y="115"/>
      <point x="351" y="156" type="qcurve" smooth="yes"/>
      <point x="351" y="226" type="line"/>
      <point x="271" y="226" type="line" smooth="yes"/>
      <point x="162" y="226"/>
      <point x="162" y="163" type="qcurve" smooth="yes"/>
      <point x="162" y="143" type="line" smooth="yes"/>
      <point x="162" y="78"/>
    </contour>
    <contour>
      <point x="392" y="-210" type="qcurve" smooth="yes"/>
      <point x="348" y="-210"/>
      <point x="279" y="-174"/>
      <point x="279" y="-128" type="qcurve" smooth="yes"/>
      <point x="279" y="-86"/>
      <point x="340" y="-29"/>
      <point x="392" y="-4" type="qcurve"/>
      <point x="391" y="0" type="line"/>
      <point x="362" y="0" type="line"/>
      <point x="362" y="89" type="line"/>
      <point x="357" y="89" type="line"/>
      <point x="341" y="36"/>
      <point x="258" y="-12"/>
      <point x="204" y="-12" type="qcurve" smooth="yes"/>
      <point x="119" y="-12"/>
      <point x="38" y="74"/>
      <point x="38" y="142" type="qcurve" smooth="yes"/>
      <point x="38" y="301"/>
      <point x="261" y="301" type="qcurve" smooth="yes"/>
      <point x="351" y="301" type="line"/>
      <point x="351" y="341" type="line" smooth="yes"/>
      <point x="351" y="436"/>
      <point x="251" y="436" type="qcurve" smooth="yes"/>
      <point x="204" y="436"/>
      <point x="149" y="397"/>
      <point x="131" y="368" type="qcurve"/>
      <point x="58" y="433" type="line"/>
      <point x="117" y="534"/>
      <point x="259" y="534" type="qcurve" smooth="yes"/>
      <point x="367" y="534"/>
      <point x="473" y="437"/>
      <point x="473" y="348" type="qcurve" smooth="yes"/>
      <point x="473" y="0" type="line"/>
      <point x="409" y="-44"/>
      <point x="365" y="-91"/>
      <point x="365" y="-112" type="qcurve" smooth="yes"/>
      <point x="365" y="-144"/>
      <point x="401" y="-144" type="qcurve" smooth="yes"/>
      <point x="432" y="-144"/>
      <point x="453" y="-117" type="qcurve"/>
      <point x="501" y="-164" type="line"/>
      <point x="476" y="-210"/>
    </contour>
  </outline>
</glyph>
<glyph name="Dcaron" format="2">
  <advance width="688"/>
  <unicode hex="010E"/>
  <outline>
    <contour>
      <point x="335" y="112" type="line" smooth="yes"/>
      <point x="407" y="112"/>
      <point x="500" y="198"/>
      <point x="500" y="294" type="qcurve" smooth="yes"/>
      <point x="500" y="404" type="line" smooth="yes"/>
      <point x="500" y="497"/>
      <point x="408" y="586"/>
      <point x="335" y="586" type="qcurve" smooth="yes"/>
      <point x="209" y="586" type="line"/>
      <point x="209" y="112" type="line"/>
    </contour>
    <contour>
      <point x="335" y="0" type="qcurve" smooth="yes"/>
      <point x="83" y="0" type="line"/>
      <point x="83" y="698" type="line"/>
      <point x="335" y="698" type="line" smooth="yes"/>
      <point x="478" y="698"/>
      <point x="634" y="513"/>
      <point x="634" y="349" type="qcurve" smooth="yes"/>
      <point x="634" y="229"/>
      <point x="556" y="74"/>
      <point x="420" y="0"/>
    </contour>
    <contour>
      <point x="374" y="756" type="line"/>
      <point x="260" y="756" type="line"/>
      <point x="136" y="909" type="line"/>
      <point x="197" y="956" type="line"/>
      <point x="317" y="841" type="line"/>
      <point x="437" y="956" type="line"/>
      <point x="498" y="909" type="line"/>
    </contour>
  </outline>
</glyph>
<glyph name="Hbar" format="2">
  <advance width="726"/>
  <unicode hex="0126"/>
  <outline>
    <contour>
      <point x="513" y="409" type="line"/>
      <point x="513" y="511" type="line"/>
      <point x="213" y="511" type="line"/>
      <point x="213" y="409" type="line"/>
    </contour>
    <contour>
      <point x="639" y="0" type="line"/>
      <point x="513" y="0" type="line"/>
      <point x="513" y="298" type="line"/>
      <point x="213" y="298" type="line"/>
      <point x="213" y="0" type="line"/>
      <point x="87" y="0" type="line"/>
      <point x="87" y="511" type="line"/>
      <point x="15" y="511" type="line"/>
      <point x="15" y="605" type="line"/>
      <point x="87" y="605" type="line"/>
      <point x="87" y="698" type="line"/>
      <point x="213" y="698" type="line"/>
      <point x="213" y="605" type="line"/>
      <point x="513" y="605" type="line"/>
      <point x="513" y="698" type="line"/>
      <point x="639" y="698" type="line"/>
      <point x="639" y="605" type="line"/>
      <point x="711" y="605" type="line"/>
      <point x="711" y="511" type="line"/>
      <point x="639" y="511" type="line"/>
    </contour>
  </outline>
</glyph>
<glyph name="hbar" format="2">
  <advance width="585"/>
  <unicode hex="0127"/>
  <outline>
    <contour>
      <point x="516" y="0" type="line"/>
      <point x="394" y="0" type="line"/>
      <point x="394" y="317" type="line" smooth="yes"/>
      <point x="394" y="376"/>
      <point x="349" y="431"/>
      <point x="304" y="431" type="qcurve" smooth="yes"/>
      <point x="263" y="431"/>
      <point x="197" y="388"/>
      <point x="197" y="346" type="qcurve" smooth="yes"/>
      <point x="197" y="0" type="line"/>
      <point x="75" y="0" type="line"/>
      <point x="75" y="597" type="line"/>
      <point x="12" y="597" type="line"/>
      <point x="12" y="683" type="line"/>
      <point x="75" y="683" type="line"/>
      <point x="75" y="740" type="line"/>
      <point x="197" y="740" type="line"/>
      <point x="197" y="683" type="line"/>
      <point x="341" y="683" type="line"/>
      <point x="341" y="597" type="line"/>
      <point x="197" y="597" type="line"/>
      <point x="197" y="435" type="line"/>
      <point x="202" y="435" type="line"/>
      <point x="237" y="534"/>
      <point x="348" y="534" type="qcurve" smooth="yes"/>
      <point x="432" y="534"/>
      <point x="516" y="423"/>
      <point x="516" y="330" type="qcurve" smooth="yes"/>
    </contour>
  </outline>
</glyph>
<glyph name="iogonek" format="2">
  <advance width="272"/>
  <unicode hex="012F"/>
  <outline>
    <contour>
      <point x="116" y="-210" type="qcurve" smooth="yes"/>
      <point x="72" y="-210"/>
      <point x="3" y="-175"/>
      <point x="3" y="-128" type="qcurve" smooth="yes"/>
      <point x="3" y="-86"/>
      <point x="65" y="-30"/>
      <point x="115" y="-4" type="qcurve"/>
      <point x="114" y="0" type="line"/>
      <point x="75" y="0" type="line"/>
      <point x="75" y="522" type="line"/>
      <point x="197" y="522" type="line"/>
      <point x="197" y="0" type="line"/>
      <point x="132" y="-45"/>
      <point x="89" y="-91"/>
      <point x="89" y="-112" type="qcurve" smooth="yes"/>
      <point x="89" y="-144"/>
      <point x="124" y="-144" type="qcurve" smooth="yes"/>
      <point x="154" y="-144"/>
      <point x="177" y="-117" type="qcurve"/>
      <point x="225" y="-164" type="line"/>
      <point x="200" y="-210"/>
    </contour>
    <contour>
      <point x="136" y="602" type="qcurve" smooth="yes"/>
      <point x="64" y="602"/>
      <point x="64" y="665" type="qcurve" smooth="yes"/>
      <point x="64" y="683" type="line" smooth="yes"/>
      <point x="64" y="709"/>
      <point x="97" y="746"/>
      <point x="136" y="746" type="qcurve" smooth="yes"/>
      <point x="175" y="746"/>
      <point x="208" y="709"/>
      <point x="208" y="683" type="qcurve" smooth="yes"/>
      <point x="208" y="665" type="line" smooth="yes"/>
      <point x="208" y="602"/>
    </contour>
  </outline>
</glyph>
<glyph name="jcircumflex" format="2">
  <advance width="272"/>
  <unicode hex="0135"/>
  <outline>
    <contour>
      <point x="63" y="-200" type="qcurve" smooth="yes"/>
      <point x="-5" y="-200" type="line"/>
      <point x="-5" y="-102" type="line"/>
      <point x="75" y="-102" type="line"/>
      <point x="75" y="522" type="line"/>
      <point x="197" y="522" type="line"/>
      <point x="197" y="-65" type="line" smooth="yes"/>
      <point x="197" y="-200"/>
    </contour>
    <contour>
      <point x="257" y="583" type="line"/>
      <point x="137" y="699" type="line"/>
      <point x="18" y="583" type="line"/>
      <point x="-44" y="631" type="line"/>
      <point x="80" y="784" type="line"/>
      <point x="195" y="784" type="line"/>
      <point x="319" y="631" type="line"/>
    </contour>
  </outline>
</glyph>
<glyph name="ncommaaccent" format="2">
  <advance width="585"/>
  <unicode hex="0146"/>
  <outline>
    <contour>
      <point x="293" y="-264" type="qcurve"/>
      <point x="219" y="-264" type="line"/>
      <point x="264" y="-223"/>
      <point x="276" y="-173" type="qcurve"/>
      <point x="248" y="-169"/>
      <point x="232" y="-132"/>
      <point x="232" y="-107" type="qcurve"/>
      <point x="234" y="-51"/>
      <point x="295" y="-51" type="qcurve" smooth="yes"/>
      <point x="358" y="-51"/>
      <point x="358" y="-107" type="qcurve" smooth="yes"/>
      <point x="358" y="-134"/>
      <point x="352" y="-175"/>
      <point x="340" y="-199" type="qcurve"/>
      <point x="322" y="-238"/>
    </contour>
    <contour>
      <point x="516" y="0" type="line"/>
      <point x="394" y="0" type="line"/>
      <point x="394" y="316" type="line" smooth="yes"/>
      <point x="394" y="431"/>
      <point x="307" y="431" type="qcurve" smooth="yes"/>
      <point x="265" y="431"/>
      <point x="197" y="389"/>
      <point x="197" y="345" type="qcurve" smooth="yes"/>
      <point x="197" y="0" type="line"/>
      <point x="75" y="0" type="line"/>
      <point x="75" y="522" type="line"/>
      <point x="197" y="522" type="line"/>
      <point x="197" y="435" type="line"/>
      <point x="202" y="435" type="line"/>
      <point x="238" y="534"/>
      <point x="348" y="534" type="qcurve" smooth="yes"/>
      <point x="432" y="534"/>
      <point x="516" y="423"/>
      <point x="516" y="330" type="qcurve" smooth="yes"/>
    </contour>
  </outline>
</glyph>
<glyph name="Ncaron" format="2">
  <advance width="717"/>
  <unicode hex="0147"/>
  <outline>
    <contour>
      <point x="634" y="0" type="line"/>
      <point x="495" y="0" type="line"/>
      <point x="279" y="367" type="line"/>
      <point x="206" y="513" type="line"/>
      <point x="203" y="513" type="line"/>
      <point x="203" y="0" type="line"/>
      <point x="83" y="0" type="line"/>
      <point x="83" y="698" type="line"/>
      <point x="222" y="698" type="line"/>
      <point x="438" y="331" type="line"/>
      <point x="512" y="185" type="line"/>
      <point x="515" y="185" type="line"/>
      <point x="515" y="698" type="line"/>
      <point x="634" y="698" type="line"/>
    </contour>
    <contour>
      <point x="416" y="756" type="line"/>
      <point x="301" y="756" type="line"/>
      <point x="177" y="909" type="line"/>
      <point x="239" y="956" type="line"/>
      <point x="358" y="841" type="line"/>
      <point x="478" y="956" type="line"/>
      <point x="540" y="909" type="line"/>
    </contour>
  </outline>
</glyph>
<glyph name="ncaron" format="2">
  <advance width="585"/>
  <unicode hex="0148"/>
  <outline>
    <contour>
      <point x="516" y="0" type="line"/>
      <point x="394" y="0" type="line"/>
      <point x="394" y="316" type="line" smooth="yes"/>
      <point x="394" y="431"/>
      <point x="307" y="431" type="qcurve" smooth="yes"/>
      <point x="265" y="431"/>
      <point x="197" y="389"/>
      <point x="197" y="345" type="qcurve" smooth="yes"/>
      <point x="197" y="0" type="line"/>
      <point x="75" y="0" type="line"/>
      <point x="75" y="522" type="line"/>
      <point x="197" y="522" type="line"/>
      <point x="197" y="435" type="line"/>
      <point x="202" y="435" type="line"/>
      <point x="238" y="534"/>
      <point x="348" y="534" type="qcurve" smooth="yes"/>
      <point x="432" y="534"/>
      <point x="516" y="423"/>
      <point x="516" y="330" type="qcurve" smooth="yes"/>
    </contour>
    <contour>
      <point x="353" y="592" type="line"/>
      <point x="239" y="592" type="line"/>
      <point x="115" y="745" type="line"/>
      <point x="176" y="792" type="line"/>
      <point x="296" y="676" type="line"/>
      <point x="416" y="792" type="line"/>
      <point x="477" y="745" type="line"/>
    </contour>
  </outline>
</glyph>
<glyph name="Eng" format="2">
  <advance width="717"/>
  <unicode hex="014A"/>
  <outline>
    <contour>
      <point x="500" y="-200" type="qcurve" smooth="yes"/>
      <point x="430" y="-200" type="line"/>
      <point x="430" y="-100" type="line"/>
      <point x="515" y="-100" type="line"/>
      <point x="515" y="0" type="line"/>
      <point x="495" y="0" type="line"/>
      <point x="279" y="367" type="line"/>
      <point x="272" y="383"/>
      <point x="206" y="513" type="qcurve"/>
      <point x="203" y="513" type="line"/>
      <point x="203" y="0" type="line"/>
      <point x="83" y="0" type="line"/>
      <point x="83" y="698" type="line"/>
      <point x="222" y="698" type="line"/>
      <point x="438" y="331" type="line"/>
      <point x="445" y="315"/>
      <point x="512" y="185" type="qcurve"/>
      <point x="515" y="185" type="line"/>
      <point x="515" y="698" type="line"/>
      <point x="634" y="698" type="line"/>
      <point x="634" y="-63" type="line" smooth="yes"/>
      <point x="634" y="-200"/>
    </contour>
  </outline>
</glyph>
<glyph name="racute" format="2">
  <advance width="390"/>
  <unicode hex="0155"/>
  <outline>
    <contour>
      <point x="197" y="0" type="line"/>
      <point x="75" y="0" type="line"/>
      <point x="75" y="522" type="line"/>
      <point x="197" y="522" type="line"/>
      <point x="197" y="417" type="line"/>
      <point x="202" y="417" type="line"/>
      <point x="210" y="458"/>
      <point x="280" y="522"/>
      <point x="342" y="522" type="qcurve" smooth="yes"/>
      <point x="370" y="522" type="line"/>
      <point x="370" y="406" type="line"/>
      <point x="329" y="406" type="line" smooth="yes"/>
      <point x="259" y="406"/>
      <point x="197" y="365"/>
      <point x="197" y="324" type="qcurve" smooth="yes"/>
    </contour>
    <contour>
      <point x="236" y="581" type="line"/>
      <point x="161" y="617" type="line"/>
      <point x="255" y="802" type="line"/>
      <point x="359" y="751" type="line"/>
    </contour>
  </outline>
</glyph>
<glyph name="tbar" format="2">
  <advance width="378"/>
  <unicode hex="0167"/>
  <outline>
    <contour>
      <point x="328" y="0" type="line"/>
      <point x="236" y="0" type="line" smooth="yes"/>
      <point x="107" y="0"/>
      <point x="107" y="126" type="qcurve" smooth="yes"/>
      <point x="107" y="231" type="line"/>
      <point x="43" y="231" type="line"/>
      <point x="43" y="317" type="line"/>
      <point x="107" y="317" type="line"/>
      <point x="107" y="424" type="line"/>
      <point x="29" y="424" type="line"/>
      <point x="29" y="522" type="line"/>
      <point x="73" y="522" type="line" smooth="yes"/>
      <point x="119" y="522"/>
      <point x="119" y="574" type="qcurve" smooth="yes"/>
      <point x="119" y="664" type="line"/>
      <point x="229" y="664" type="line"/>
      <point x="229" y="522" type="line"/>
      <point x="336" y="522" type="line"/>
      <point x="336" y="424" type="line"/>
      <point x="229" y="424" type="line"/>
      <point x="229" y="317" type="line"/>
      <point x="317" y="317" type="line"/>
      <point x="317" y="231" type="line"/>
      <point x="229" y="231" type="line"/>
      <point x="229" y="98" type="line"/>
      <point x="328" y="98" type="line"/>
    </contour>
  </outline>
</glyph>
<glyph name="ubreve" format="2">
  <advance width="585"/>
  <unicode hex="016D"/>
  <outline>
    <contour>
      <point x="238" y="-12" type="qcurve" smooth="yes"/>
      <point x="154" y="-12"/>
      <point x="70" y="94"/>
      <point x="70" y="191" type="qcurve" smooth="yes"/>
      <point x="70" y="522" type="line"/>
      <point x="192" y="522" type="line"/>
      <point x="192" y="205" type="line" smooth="yes"/>
      <point x="192" y="91"/>
      <point x="277" y="91" type="qcurve" smooth="yes"/>
      <point x="283" y="91" type="line" smooth="yes"/>
      <point x="308" y="91"/>
      <point x="356" y="108"/>
      <point x="388" y="146"/>
      <point x="388" y="176" type="qcurve" smooth="yes"/>
      <point x="388" y="522" type="line"/>
      <point x="510" y="522" type="line"/>
      <point x="510" y="0" type="line"/>
      <point x="388" y="0" type="line"/>
      <point x="388" y="87" type="line"/>
      <point x="384" y="87" type="line"/>
      <point x="353" y="-12"/>
    </contour>
    <contour>
      <point x="291" y="586" type="qcurve" smooth="yes"/>
      <point x="241" y="586"/>
      <point x="171" y="627"/>
      <point x="127" y="696"/>
      <point x="115" y="738" type="qcurve"/>
      <point x="182" y="772" type="line"/>
      <point x="203" y="739" type="line"/>
      <point x="219" y="709"/>
      <point x="259" y="673"/>
      <point x="291" y="673" type="qcurve" smooth="yes"/>
      <point x="322" y="673"/>
      <point x="360" y="707"/>
      <point x="379" y="739" type="qcurve" smooth="yes"/>
      <point x="399" y="772" type="line"/>
      <point x="466" y="738" type="line"/>
      <point x="421" y="586"/>
    </contour>
  </outline>
</glyph>
<glyph name="dotlessj" format="2">
  <advance width="272"/>
  <unicode hex="0237"/>
  <outline>
    <contour>
      <point x="63" y="-200" type="qcurve" smooth="yes"/>
      <point x="-5" y="-200" type="line"/>
      <point x="-5" y="-102" type="line"/>
      <point x="75" y="-102" type="line"/>
      <point x="75" y="522" type="line"/>
      <point x="197" y="522" type="line"/>
      <point x="197" y="-65" type="line" smooth="yes"/>
      <point x="197" y="-200"/>
    </contour>
  </outline>
</glyph>
<glyph name="circumflex" format="2">
  <advance width="600"/>
  <unicode hex="02C6"/>
  <outline>
    <contour>
      <point x="420" y="583" type="line"/>
      <point x="300" y="699" type="line"/>
      <point x="180" y="583" type="line"/>
      <point x="119" y="631" type="line"/>
      <point x="243" y="784" type="line"/>
      <point x="357" y="784" type="line"/>
      <point x="481" y="631" type="line"/>
    </contour>
  </outline>
</glyph>
<glyph name="ring" format="2">
  <advance width="600"/>
  <unicode hex="02DA"/>
  <outline>
    <contour>
      <point x="300" y="630" type="qcurve"/>
      <point x="354" y="632"/>
      <point x="354" y="682" type="qcurve" smooth="yes"/>
      <point x="354" y="713" type="line"/>
      <point x="352" y="764"/>
      <point x="300" y="764" type="qcurve" smooth="yes"/>
      <point x="246" y="764"/>
      <point x="246" y="712" type="qcurve" smooth="yes"/>
      <point x="246" y="682" type="line" smooth="yes"/>
      <point x="246" y="630"/>
    </contour>
    <contour>
      <point x="300" y="565" type="qcurve" smooth="yes"/>
      <point x="243" y="565"/>
      <point x="164" y="639"/>
      <point x="164" y="697" type="qcurve" smooth="yes"/>
      <point x="164" y="755"/>
      <point x="244" y="829"/>
      <point x="300" y="829" type="qcurve" smooth="yes"/>
      <point x="356" y="829"/>
      <point x="436" y="755"/>
      <point x="436" y="697" type="qcurve" smooth="yes"/>
      <point x="436" y="639"/>
      <point x="356" y="565"/>
    </contour>
  </outline>
</glyph>
<glyph name="circumflexcomb" format="2">
  <unicode hex="0302"/>
  <outline>
    <contour>
      <point x="121" y="583" type="line"/>
      <point x="1" y="699" type="line"/>
      <point x="-119" y="583" type="line"/>
      <point x="-180" y="631" type="line"/>
      <point x="-56" y="784" type="line"/>
      <point x="58" y="784" type="line"/>
      <point x="182" y="631" type="line"/>
    </contour>
  </outline>
</glyph>
<glyph name="brevecomb" format="2">
  <unicode hex="0306"/>
  <outline>
    <contour>
      <point x="0" y="586" type="qcurve" smooth="yes"/>
      <point x="-49" y="586"/>
      <point x="-118" y="627"/>
      <point x="-162" y="696"/>
      <point x="-175" y="738" type="qcurve"/>
      <point x="-108" y="772" type="line"/>
      <point x="-91" y="745" type="line"/>
      <point x="-71" y="711"/>
      <point x="-32" y="673"/>
      <point x="0" y="673" type="qcurve" smooth="yes"/>
      <point x="31" y="673"/>
      <point x="69" y="707"/>
      <point x="88" y="739" type="qcurve"/>
      <point x="109" y="772" type="line"/>
      <point x="176" y="738" type="line"/>
      <point x="131" y="586"/>
    </contour>
  </outline>
</glyph>
<glyph name="dotaccentcomb" format="2">
  <unicode hex="0307"/>
  <outline>
    <contour>
      <point x="1" y="600" type="qcurve" smooth="yes"/>
      <point x="-73" y="600"/>
      <point x="-73" y="662" type="qcurve" smooth="yes"/>
      <point x="-73" y="683" type="line" smooth="yes"/>
      <point x="-73" y="745"/>
      <point x="1" y="745" type="qcurve" smooth="yes"/>
      <point x="75" y="745"/>
      <point x="75" y="683" type="qcurve" smooth="yes"/>
      <point x="75" y="662" type="line" smooth="yes"/>
      <point x="75" y="600"/>
    </contour>
  </outline>
</glyph>
<glyph name="commaaboverightcomb" format="2">
  <unicode hex="0315"/>
  <outline>
    <contour>
      <point x="81" y="536" type="line"/>
      <point x="1" y="536" type="line"/>
      <point x="10" y="740" type="line"/>
      <point x="142" y="740" type="line"/>
    </contour>
  </outline>
</glyph>
<glyph name="Epsilontonos" format="2">
  <advance width="656"/>
  <unicode hex="0388"/>
  <outline>
    <contour>
      <point x="146" y="0" type="line"/>
      <point x="146" y="698" type="line"/>
      <point x="596" y="698" type="line"/>
      <point x="596" y="593" type="line"/>
      <point x="264" y="593" type="line"/>
      <point x="264" y="405" type="line"/>
      <point x="563" y="405" type="line"/>
      <point x="563" y="301" type="line"/>
      <point x="264" y="301" type="line"/>
      <point x="264" y="104" type="line"/>
      <point x="596" y="104" type="line"/>
      <point x="596" y="0" type="line"/>
    </contour>
    <contour>
      <point x="56" y="582" type="line"/>
      <point x="-20" y="592" type="line"/>
      <point x="12" y="798" type="line"/>
      <point x="118" y="782" type="line"/>
    </contour>
  </outline>
</glyph>
<glyph name="Zeta" format="2">
  <advance width="596"/>
  <unicode hex="0396"/>
  <outline>
    <contour>
      <point x="557" y="0" type="line"/>
      <point x="38" y="0" type="line"/>
      <point x="38" y="105" type="line"/>
      <point x="412" y="593" type="line"/>
      <point x="57" y="593" type="line"/>
      <point x="57" y="698" type="line"/>
      <point x="546" y="698" type="line"/>
      <point x="546" y="592" type="line"/>
      <point x="171" y="104" type="line"/>
      <point x="557" y="104" type="line"/>
    </contour>
  </outline>
</glyph>
<glyph name="Pi" format="2">
  <advance width="702"/>
  <unicode hex="03A0"/>
  <outline>
    <contour>
      <point x="83" y="698" type="line"/>
      <point x="614" y="698" type="line"/>
      <point x="614" y="0" type="line"/>
      <point x="496" y="0" type="line"/>
      <point x="496" y="593" type="line"/>
      <point x="201" y="593" type="line"/>
      <point x="201" y="0" type="line"/>
      <point x="83" y="0" type="line"/>
    </contour>
  </outline>
</glyph>
<glyph name="iota" format="2">
  <advance width="312"/>
  <unicode hex="03B9"/>
  <outline>
    <contour>
      <point x="291" y="0" type="line"/>
      <point x="197" y="0" type="line" smooth="yes"/>
      <point x="162" y="0"/>
      <point x="115" y="20"/>
      <point x="88" y="58"/>
      <point x="77" y="112"/>
      <point x="77" y="146" type="qcurve" smooth="yes"/>
      <point x="77" y="520" type="line"/>
      <point x="191" y="520" type="line"/>
      <point x="191" y="92" type="line"/>
      <point x="291" y="92" type="line"/>
    </contour>
  </outline>
</glyph>
<glyph name="rho" format="2">
  <advance width="564"/>
  <unicode hex="03C1"/>
  <outline>
    <contour>
      <point x="279" y="82" type="qcurve" smooth="yes"/>
      <point x="336" y="82"/>
      <point x="398" y="153"/>
      <point x="398" y="219" type="qcurve" smooth="yes"/>
      <point x="398" y="289" type="line" smooth="yes"/>
      <point x="398" y="359"/>
      <point x="344" y="438"/>
      <point x="282" y="438" type="qcurve" smooth="yes"/>
      <point x="225" y="438"/>
      <point x="167" y="368"/>
      <point x="167" y="305" type="qcurve" smooth="yes"/>
      <point x="167" y="161" type="line" smooth="yes"/>
      <point x="167" y="123"/>
      <point x="232" y="82"/>
    </contour>
    <contour>
      <point x="53" y="279" type="line" smooth="yes"/>
      <point x="53" y="336"/>
      <point x="80" y="429"/>
      <point x="137" y="495"/>
      <point x="225" y="532"/>
      <point x="285" y="532" type="qcurve" smooth="yes"/>
      <point x="405" y="532"/>
      <point x="518" y="391"/>
      <point x="518" y="262" type="qcurve" smooth="yes"/>
      <point x="518" y="128"/>
      <point x="412" y="-12"/>
      <point x="314" y="-12" type="qcurve" smooth="yes"/>
      <point x="265" y="-12"/>
      <point x="187" y="33"/>
      <point x="171" y="73" type="qcurve"/>
      <point x="167" y="73" type="line"/>
      <point x="167" y="-200" type="line"/>
      <point x="53" y="-200" type="line"/>
    </contour>
  </outline>
</glyph>
<glyph name="omega" format="2">
  <advance width="753"/>
  <unicode hex="03C9"/>
  <outline>
    <contour>
      <point x="433" y="207" type="line" smooth="yes"/>
      <point x="433" y="138"/>
      <point x="470" y="82"/>
      <point x="509" y="82" type="qcurve" smooth="yes"/>
      <point x="551" y="82"/>
      <point x="585" y="147"/>
      <point x="585" y="227" type="qcurve" smooth="yes"/>
      <point x="585" y="284" type="line" smooth="yes"/>
      <point x="585" y="405"/>
      <point x="498" y="460" type="qcurve"/>
      <point x="568" y="532" type="line"/>
      <point x="602" y="515"/>
      <point x="653" y="465"/>
      <point x="687" y="395"/>
      <point x="705" y="303"/>
      <point x="705" y="245" type="qcurve" smooth="yes"/>
      <point x="705" y="117"/>
      <point x="612" y="-12"/>
      <point x="524" y="-12" type="qcurve" smooth="yes"/>
      <point x="462" y="-12"/>
      <point x="392" y="57"/>
      <point x="378" y="120" type="qcurve"/>
      <point x="374" y="120" type="line"/>
      <point x="360" y="57"/>
      <point x="289" y="-12"/>
      <point x="228" y="-12" type="qcurve" smooth="yes"/>
      <point x="189" y="-12"/>
      <point x="123" y="16"/>
      <point x="74" y="78"/>
      <point x="47" y="176"/>
      <point x="47" y="245" type="qcurve" smooth="yes"/>
      <point x="47" y="357"/>
      <point x="116" y="497"/>
      <point x="185" y="532" type="qcurve"/>
      <point x="254" y="460" type="line"/>
      <point x="207" y="431"/>
      <point x="167" y="347"/>
      <point x="167" y="284" type="qcurve" smooth="yes"/>
      <point x="167" y="227" type="line" smooth="yes"/>
      <point x="167" y="152"/>
      <point x="198" y="82"/>
      <point x="243" y="82" type="qcurve" smooth="yes"/>
      <point x="282" y="82"/>
      <point x="319" y="141"/>
      <point x="319" y="217" type="qcurve" smooth="yes"/>
      <point x="319" y="359" type="line"/>
      <point x="433" y="359" type="line"/>
    </contour>
  </outline>
</glyph>
<glyph name="omicrontonos" format="2">
  <advance width="564"/>
  <unicode hex="03CC"/>
  <outline>
    <contour>
      <point x="281" y="82" type="qcurve" smooth="yes"/>
      <point x="335" y="82"/>
      <point x="400" y="147"/>
      <point x="400" y="215" type="qcurve" smooth="yes"/>
      <point x="400" y="287" type="line" smooth="yes"/>
      <point x="400" y="360"/>
      <point x="342" y="438"/>
      <point x="281" y="438" type="qcurve" smooth="yes"/>
      <point x="224" y="438"/>
      <point x="161" y="371"/>
      <point x="161" y="305" type="qcurve" smooth="yes"/>
      <point x="161" y="233" type="line" smooth="yes"/>
      <point x="161" y="161"/>
      <point x="217" y="82"/>
    </contour>
    <contour>
      <point x="281" y="-12" type="qcurve" smooth="yes"/>
      <point x="226" y="-12"/>
      <point x="138" y="26"/>
      <point x="75" y="97"/>
      <point x="41" y="197"/>
      <point x="41" y="260" type="qcurve" smooth="yes"/>
      <point x="41" y="318"/>
      <point x="72" y="418"/>
      <point x="133" y="491"/>
      <point x="223" y="532"/>
      <point x="281" y="532" type="qcurve" smooth="yes"/>
      <point x="333" y="532"/>
      <point x="421" y="496"/>
      <point x="484" y="426"/>
      <point x="520" y="325"/>
      <point x="520" y="260" type="qcurve" smooth="yes"/>
      <point x="520" y="198"/>
      <point x="486" y="97"/>
      <point x="424" y="26"/>
      <point x="335" y="-12"/>
    </contour>
    <contour>
      <point x="315" y="582" type="line"/>
      <point x="239" y="592" type="line"/>
      <point x="271" y="798" type="line"/>
      <point x="377" y="782" type="line"/>
    </contour>
  </outline>
</glyph>
<glyph name="Jecyr" format="2">
  <advance width="540"/>
  <unicode hex="0408"/>
  <outline>
    <contour>
      <point x="243" y="-12" type="qcurve" smooth="yes"/>
      <point x="176" y="-12"/>
      <point x="87" y="36"/>
      <point x="35" y="118"/>
      <point x="26" y="170" type="qcurve"/>
      <point x="143" y="195" type="line"/>
      <point x="161" y="100"/>
      <point x="243" y="100" type="qcurve" smooth="yes"/>
      <point x="335" y="100"/>
      <point x="335" y="216" type="qcurve" smooth="yes"/>
      <point x="335" y="698" type="line"/>
      <point x="461" y="698" type="line"/>
      <point x="461" y="194" type="line" smooth="yes"/>
      <point x="461" y="100"/>
      <point x="342" y="-12"/>
    </contour>
  </outline>
</glyph>
<glyph name="Njecyr" format="2">
  <advance width="1039"/>
  <unicode hex="040A"/>
  <outline>
    <contour>
      <point x="786" y="110" type="line" smooth="yes"/>
      <point x="871" y="110"/>
      <point x="871" y="194" type="qcurve" smooth="yes"/>
      <point x="871" y="241" type="line" smooth="yes"/>
      <point x="871" y="285"/>
      <point x="823" y="325"/>
      <point x="786" y="325" type="qcurve" smooth="yes"/>
      <point x="614" y="325" type="line"/>
      <point x="614" y="110" type="line"/>
    </contour>
    <contour>
      <point x="797" y="0" type="qcurve" smooth="yes"/>
      <point x="488" y="0" type="line"/>
      <point x="488" y="298" type="line"/>
      <point x="209" y="298" type="line"/>
      <point x="209" y="0" type="line"/>
      <point x="83" y="0" type="line"/>
      <point x="83" y="698" type="line"/>
      <point x="209" y="698" type="line"/>
      <point x="209" y="409" type="line"/>
      <point x="488" y="409" type="line"/>
      <point x="488" y="698" type="line"/>
      <point x="614" y="698" type="line"/>
      <point x="614" y="435" type="line"/>
      <point x="797" y="435" type="line" smooth="yes"/>
      <point x="893" y="435"/>
      <point x="1003" y="316"/>
      <point x="1003" y="218" type="qcurve" smooth="yes"/>
      <point x="1003" y="122"/>
      <point x="899" y="0"/>
    </contour>
  </outline>
</glyph>
<glyph name="Igravecyr" format="2">
  <advance width="717"/>
  <unicode hex="040D"/>
  <outline>
    <contour>
      <point x="634" y="0" type="line"/>
      <point x="512" y="0" type="line"/>
      <point x="512" y="378" type="line"/>
      <point x="524" y="523" type="line"/>
      <point x="521" y="523" type="line"/>
      <point x="452" y="393" type="line"/>
      <point x="196" y="0" type="line"/>
      <point x="83" y="0" type="line"/>
      <point x="83" y="698" type="line"/>
      <point x="206" y="698" type="line"/>
      <point x="206" y="320" type="line"/>
      <point x="193" y="175" type="line"/>
      <point x="196" y="175" type="line"/>
      <point x="266" y="305" type="line"/>
      <point x="521" y="698" type="line"/>
      <point x="634" y="698" type="line"/>
    </contour>
    <contour>
      <point x="347" y="746" type="line"/>
      <point x="223" y="915" type="line"/>
      <point x="328" y="966" type="line"/>
      <point x="421" y="782" type="line"/>
    </contour>
  </outline>
</glyph>
<glyph name="escyr" format="2">
  <advance width="512"/>
  <unicode hex="0441"/>
  <outline>
    <contour>
      <point x="280" y="-12" type="qcurve" smooth="yes"/>
      <point x="173" y="-12"/>
      <point x="41" y="124"/>
      <point x="41" y="261" type="qcurve" smooth="yes"/>
      <point x="41" y="341"/>
      <point x="95" y="464"/>
      <point x="201" y="534"/>
      <point x="280" y="534" type="qcurve" smooth="yes"/>
      <point x="431" y="534"/>
      <point x="484" y="403" type="qcurve"/>
      <point x="384" y="357" type="line"/>
      <point x="362" y="434"/>
      <point x="280" y="434" type="qcurve" smooth="yes"/>
      <point x="220" y="434"/>
      <point x="169" y="360"/>
      <point x="169" y="308" type="qcurve" smooth="yes"/>
      <point x="169" y="213" type="line" smooth="yes"/>
      <point x="169" y="159"/>
      <point x="220" y="87"/>
      <point x="280" y="87" type="qcurve" smooth="yes"/>
      <point x="326" y="87"/>
      <point x="378" y="131"/>
      <point x="394" y="170" type="qcurve"/>
      <point x="487" y="124" type="line"/>
      <point x="433" y="-12"/>
    </contour>
  </outline>
</glyph>
<glyph name="igravecyr" format="2">
  <advance width="603"/>
  <unicode hex="045D"/>
  <outline>
    <contour>
      <point x="528" y="0" type="line"/>
      <point x="408" y="0" type="line"/>
      <point x="408" y="240" type="line"/>
      <point x="419" y="362" type="line"/>
      <point x="415" y="362" type="line"/>
      <point x="354" y="251" type="line"/>
      <point x="185" y="0" type="line"/>
      <point x="75" y="0" type="line"/>
      <point x="75" y="522" type="line"/>
      <point x="195" y="522" type="line"/>
      <point x="195" y="282" type="line"/>
      <point x="184" y="159" type="line"/>
      <point x="187" y="159" type="line"/>
      <point x="249" y="271" type="line"/>
      <point x="418" y="522" type="line"/>
      <point x="528" y="522" type="line"/>
    </contour>
    <contour>
      <point x="290" y="581" type="line"/>
      <point x="166" y="751" type="line"/>
      <point x="271" y="802" type="line"/>
      <point x="364" y="617" type="line"/>
    </contour>
  </outline>
</glyph>
<glyph name="geupcyr" format="2">
  <advance width="441"/>
  <unicode hex="0491"/>
  <outline>
    <contour>
      <point x="197" y="0" type="line"/>
      <point x="75" y="0" type="line"/>
      <point x="75" y="522" type="line"/>
      <point x="309" y="522" type="line"/>
      <point x="309" y="662" type="line"/>
      <point x="419" y="662" type="line"/>
      <point x="419" y="424" type="line"/>
      <point x="197" y="424" type="line"/>
    </contour>
  </outline>
</glyph>
<glyph name="Gestrokecyr" format="2">
  <advance width="535"/>
  <unicode hex="0492"/>
  <outline>
    <contour>
      <point x="236" y="0" type="line"/>
      <point x="110" y="0" type="line"/>
      <point x="110" y="303" type="line"/>
      <point x="19" y="303" type="line"/>
      <point x="19" y="398" type="line"/>
      <point x="110" y="398" type="line"/>
      <point x="110" y="698" type="line"/>
      <point x="509" y="698" type="line"/>
      <point x="509" y="586" type="line"/>
      <point x="236" y="586" type="line"/>
      <point x="236" y="398" type="line"/>
      <point x="418" y="398" type="line"/>
      <point x="418" y="303" type="line"/>
      <point x="236" y="303" type="line"/>
    </contour>
  </outline>
</glyph>
<glyph name="Kabashkcyr" format="2">
  <advance width="772"/>
  <unicode hex="04A0"/>
  <outline>
    <contour>
      <point x="731" y="0" type="line"/>
      <point x="659" y="0" type="line" smooth="yes"/>
      <point x="583" y="0"/>
      <point x="548" y="78" type="qcurve"/>
      <point x="425" y="299" type="line"/>
      <point x="311" y="299" type="line"/>
      <point x="311" y="0" type="line"/>
      <point x="185" y="0" type="line"/>
      <point x="185" y="586" type="line"/>
      <point x="22" y="586" type="line"/>
      <point x="22" y="698" type="line"/>
      <point x="311" y="698" type="line"/>
      <point x="311" y="409" type="line"/>
      <point x="425" y="409" type="line"/>
      <point x="543" y="620" type="line"/>
      <point x="582" y="698"/>
      <point x="658" y="698" type="qcurve" smooth="yes"/>
      <point x="714" y="698" type="line"/>
      <point x="714" y="586" type="line"/>
      <point x="652" y="586" type="line"/>
      <point x="561" y="424" type="line" smooth="yes"/>
      <point x="545" y="397"/>
      <point x="514" y="368"/>
      <point x="492" y="361" type="qcurve"/>
      <point x="492" y="356" type="line"/>
      <point x="542" y="348"/>
      <point x="568" y="294" type="qcurve"/>
      <point x="670" y="112" type="line"/>
      <point x="731" y="112" type="line"/>
    </contour>
  </outline>
</glyph>
<glyph name="estailcyr" format="2">
  <advance width="512"/>
  <unicode hex="04AB"/>
  <outline>
    <contour>
      <point x="336" y="-140" type="line"/>
      <point x="225" y="-140" type="line"/>
      <point x="225" y="-7" type="line"/>
      <point x="130" y="13"/>
      <point x="41" y="154"/>
      <point x="41" y="261" type="qcurve" smooth="yes"/>
      <point x="41" y="381"/>
      <point x="162" y="534"/>
      <point x="280" y="534" type="qcurve" smooth="yes"/>
      <point x="431" y="534"/>
      <point x="484" y="403" type="qcurve"/>
      <point x="384" y="357" type="line"/>
      <point x="362" y="434"/>
      <point x="280" y="434" type="qcurve" smooth="yes"/>
      <point x="220" y="434"/>
      <point x="169" y="360"/>
      <point x="169" y="308" type="qcurve" smooth="yes"/>
      <point x="169" y="213" type="line" smooth="yes"/>
      <point x="169" y="159"/>
      <point x="220" y="87"/>
      <point x="280" y="87" type="qcurve" smooth="yes"/>
      <point x="326" y="87"/>
      <point x="378" y="131"/>
      <point x="394" y="170" type="qcurve"/>
      <point x="487" y="124" type="line"/>
      <point x="445" y="15"/>
      <point x="336" y="-6" type="qcurve"/>
    </contour>
  </outline>
</glyph>
<glyph name="Xatailcyr" format="2">
  <advance width="676"/>
  <unicode hex="04B2"/>
  <outline>
    <contour>
      <point x="667" y="-150" type="line"/>
      <point x="549" y="-150" type="line"/>
      <point x="549" y="0" type="line"/>
      <point x="484" y="0" type="line"/>
      <point x="321" y="271" type="line"/>
      <point x="318" y="271" type="line"/>
      <point x="157" y="0" type="line"/>
      <point x="19" y="0" type="line"/>
      <point x="245" y="358" type="line"/>
      <point x="28" y="698" type="line"/>
      <point x="176" y="698" type="line"/>
      <point x="327" y="446" type="line"/>
      <point x="330" y="446" type="line"/>
      <point x="483" y="698" type="line"/>
      <point x="621" y="698" type="line"/>
      <point x="403" y="358" type="line"/>
      <point x="560" y="112" type="line"/>
      <point x="667" y="112" type="line"/>
    </contour>
  </outline>
</glyph>
<glyph name="obarcyr" format="2">
  <advance width="564"/>
  <unicode hex="04E9"/>
  <outline>
    <contour>
      <point x="282" y="82" type="qcurve" smooth="yes"/>
      <point x="334" y="82"/>
      <point x="401" y="144"/>
      <point x="401" y="211" type="qcurve" smooth="yes"/>
      <point x="401" y="221" type="line"/>
      <point x="163" y="221" type="line"/>
      <point x="163" y="82"/>
    </contour>
    <contour>
      <point x="401" y="306" type="line"/>
      <point x="401" y="308" type="line" smooth="yes"/>
      <point x="401" y="376"/>
      <point x="336" y="440"/>
      <point x="282" y="440" type="qcurve"/>
      <point x="163" y="436"/>
      <point x="163" y="306" type="qcurve"/>
    </contour>
    <contour>
      <point x="282" y="-12" type="qcurve" smooth="yes"/>
      <point x="167" y="-12"/>
      <point x="41" y="141"/>
      <point x="41" y="261" type="qcurve" smooth="yes"/>
      <point x="41" y="388"/>
      <point x="172" y="534"/>
      <point x="282" y="534" type="qcurve" smooth="yes"/>
      <point x="391" y="534"/>
      <point x="523" y="387"/>
      <point x="523" y="261" type="qcurve" smooth="yes"/>
      <point x="523" y="139"/>
      <point x="394" y="-12"/>
    </contour>
  </outline>
</glyph>
<glyph name="Uacutedblcyr" format="2">
  <advance width="617"/>
  <unicode hex="04F2"/>
  <outline>
    <contour>
      <point x="212" y="0" type="qcurve" smooth="yes"/>
      <point x="128" y="0" type="line"/>
      <point x="128" y="112" type="line"/>
      <point x="242" y="112" type="line"/>
      <point x="265" y="167" type="line"/>
      <point x="15" y="698" type="line"/>
      <point x="149" y="698" type="line"/>
      <point x="203" y="580"/>
      <point x="221" y="543" type="qcurve"/>
      <point x="233" y="516"/>
      <point x="253" y="472"/>
      <point x="288" y="392"/>
      <point x="323" y="310" type="qcurve"/>
      <point x="326" y="310" type="line"/>
      <point x="369" y="428" type="line"/>
      <point x="476" y="698" type="line"/>
      <point x="601" y="698" type="line"/>
      <point x="356" y="95" type="line" smooth="yes"/>
      <point x="335" y="42"/>
      <point x="272" y="0"/>
    </contour>
    <contour>
      <point x="231" y="746" type="line"/>
      <point x="162" y="778" type="line"/>
      <point x="256" y="964" type="line"/>
      <point x="354" y="915" type="line"/>
    </contour>
    <contour>
      <point x="418" y="746" type="line"/>
      <point x="350" y="778" type="line"/>
      <point x="444" y="964" type="line"/>
      <point x="542" y="915" type="line"/>
    </contour>
  </outline>
</glyph>
<glyph name="etilde" format="2">
  <advance width="558"/>
  <unicode hex="1EBD"/>
  <outline>
    <contour>
      <point x="390" y="307" type="line"/>
      <point x="390" y="316" type="line" smooth="yes"/>
      <point x="390" y="370"/>
      <point x="336" y="441"/>
      <point x="283" y="441" type="qcurve" smooth="yes"/>
      <point x="223" y="441"/>
      <point x="167" y="363"/>
      <point x="167" y="307" type="qcurve"/>
    </contour>
    <contour>
      <point x="284" y="-12" type="qcurve" smooth="yes"/>
      <point x="167" y="-12"/>
      <point x="41" y="138"/>
      <point x="41" y="261" type="qcurve" smooth="yes"/>
      <point x="41" y="340"/>
      <point x="96" y="464"/>
      <point x="204" y="534"/>
      <point x="282" y="534" type="qcurve" smooth="yes"/>
      <point x="366" y="534"/>
      <point x="469" y="459"/>
      <point x="517" y="339"/>
      <point x="517" y="272" type="qcurve" smooth="yes"/>
      <point x="517" y="230" type="line"/>
      <point x="167" y="230" type="line"/>
      <point x="167" y="194"/>
      <point x="180" y="144"/>
      <point x="200" y="123" type="qcurve" smooth="yes"/>
      <point x="233" y="87"/>
      <point x="297" y="87" type="qcurve" smooth="yes"/>
      <point x="384" y="87"/>
      <point x="431" y="160" type="qcurve"/>
      <point x="499" y="87" type="line"/>
      <point x="432" y="-12"/>
    </contour>
    <contour>
      <point x="360" y="605" type="qcurve" smooth="yes"/>
      <point x="340" y="605"/>
      <point x="310" y="615"/>
      <point x="284" y="628"/>
      <point x="270" y="633" type="qcurve"/>
      <point x="235" y="651"/>
      <point x="207" y="651" type="qcurve" smooth="yes"/>
      <point x="189" y="651"/>
      <point x="163" y="637"/>
      <point x="149" y="625" type="qcurve"/>
      <point x="104" y="682" type="line"/>
      <point x="141" y="742"/>
      <point x="211" y="742" type="qcurve" smooth="yes"/>
      <point x="231" y="742"/>
      <point x="262" y="731"/>
      <point x="288" y="719"/>
      <point x="301" y="714" type="qcurve"/>
      <point x="335" y="696"/>
      <point x="364" y="696" type="qcurve" smooth="yes"/>
      <point x="395" y="696"/>
      <point x="422" y="722" type="qcurve"/>
      <point x="467" y="665" type="line"/>
      <point x="429" y="605"/>
    </contour>
  </outline>
</glyph>
<glyph name="idotbelow" format="2">
  <advance width="272"/>
  <unicode hex="1ECB"/>
  <outline>
    <contour>
      <point x="136" y="-191" type="qcurve"/>
      <point x="100" y="-191"/>
      <point x="67" y="-159"/>
      <point x="67" y="-134" type="qcurve" smooth="yes"/>
      <point x="67" y="-114" type="line" smooth="yes"/>
      <point x="67" y="-60"/>
      <point x="136" y="-57" type="qcurve"/>
      <point x="206" y="-57"/>
      <point x="206" y="-114" type="qcurve" smooth="yes"/>
      <point x="206" y="-134" type="line" smooth="yes"/>
      <point x="206" y="-188"/>
    </contour>
    <contour>
      <point x="136" y="602" type="qcurve" smooth="yes"/>
      <point x="64" y="602"/>
      <point x="64" y="665" type="qcurve" smooth="yes"/>
      <point x="64" y="683" type="line" smooth="yes"/>
      <point x="64" y="709"/>
      <point x="97" y="746"/>
      <point x="136" y="746" type="qcurve" smooth="yes"/>
      <point x="175" y="746"/>
      <point x="208" y="709"/>
      <point x="208" y="683" type="qcurve" smooth="yes"/>
      <point x="208" y="665" type="line" smooth="yes"/>
      <point x="208" y="602"/>
    </contour>
    <contour>
      <point x="197" y="0" type="line"/>
      <point x="75" y="0" type="line"/>
      <point x="75" y="522" type="line"/>
      <point x="197" y="522" type="line"/>
    </contour>
  </outline>
</glyph>
<glyph name="Ocircumflextilde" format="2">
  <advance width="713"/>
  <unicode hex="1ED6"/>
  <outline>
    <contour>
      <point x="356" y="100" type="qcurve" smooth="yes"/>
      <point x="430" y="100"/>
      <point x="525" y="199"/>
      <point x="525" y="304" type="qcurve" smooth="yes"/>
      <point x="525" y="403" type="line" smooth="yes"/>
      <point x="525" y="500"/>
      <point x="430" y="598"/>
      <point x="356" y="598" type="qcurve" smooth="yes"/>
      <point x="272" y="598"/>
      <point x="188" y="486"/>
      <point x="188" y="394" type="qcurve" smooth="yes"/>
      <point x="188" y="295" type="line" smooth="yes"/>
      <point x="188" y="198"/>
      <point x="283" y="100"/>
    </contour>
    <contour>
      <point x="356" y="-12" type="qcurve" smooth="yes"/>
      <point x="215" y="-12"/>
      <point x="53" y="178"/>
      <point x="53" y="349" type="qcurve" smooth="yes"/>
      <point x="53" y="518"/>
      <point x="214" y="710"/>
      <point x="356" y="710" type="qcurve" smooth="yes"/>
      <point x="500" y="710"/>
      <point x="659" y="517"/>
      <point x="659" y="349" type="qcurve" smooth="yes"/>
      <point x="659" y="176"/>
      <point x="494" y="-12"/>
    </contour>
    <contour>
      <point x="430" y="952" type="qcurve" smooth="yes"/>
      <point x="406" y="952"/>
      <point x="373" y="963"/>
      <point x="357" y="972" type="qcurve"/>
      <point x="343" y="978" type="line"/>
      <point x="305" y="997"/>
      <point x="277" y="997" type="qcurve" smooth="yes"/>
      <point x="259" y="997"/>
      <point x="233" y="983"/>
      <point x="219" y="971" type="qcurve"/>
      <point x="176" y="1024" type="line"/>
      <point x="213" y="1084"/>
      <point x="283" y="1084" type="qcurve" smooth="yes"/>
      <point x="303" y="1084"/>
      <point x="334" y="1074"/>
      <point x="360" y="1061"/>
      <point x="373" y="1057" type="qcurve"/>
      <point x="407" y="1039"/>
      <point x="436" y="1039" type="qcurve" smooth="yes"/>
      <point x="452" y="1039"/>
      <point x="478" y="1051"/>
      <point x="494" y="1065" type="qcurve"/>
      <point x="537" y="1012" type="line"/>
      <point x="499" y="952"/>
    </contour>
    <contour>
      <point x="478" y="738" type="line"/>
      <point x="356" y="840" type="line"/>
      <point x="234" y="738" type="line"/>
      <point x="178" y="790" type="line"/>
      <point x="308" y="924" type="line"/>
      <point x="405" y="924" type="line"/>
      <point x="535" y="790" type="line"/>
    </contour>
  </outline>
</glyph>
<glyph name="ohorntilde" format="2">
  <advance width="563"/>
  <unicode hex="1EE1"/>
  <outline>
    <contour>
      <point x="282" y="87" type="qcurve" smooth="yes"/>
      <point x="395" y="87"/>
      <point x="395" y="226" type="qcurve" smooth="yes"/>
      <point x="395" y="308" type="line"/>
      <point x="393" y="374"/>
      <point x="332" y="435"/>
      <point x="282" y="435" type="qcurve"/>
      <point x="169" y="433"/>
      <point x="169" y="302" type="qcurve" smooth="yes"/>
      <point x="169" y="214" type="line"/>
      <point x="170" y="150"/>
      <point x="230" y="87"/>
    </contour>
    <contour>
      <point x="282" y="-12" type="qcurve" smooth="yes"/>
      <point x="170" y="-12"/>
      <point x="41" y="139"/>
      <point x="41" y="263" type="qcurve" smooth="yes"/>
      <point x="41" y="387"/>
      <point x="169" y="534"/>
      <point x="282" y="534" type="qcurve" smooth="yes"/>
      <point x="325" y="534"/>
      <point x="364" y="522" type="qcurve"/>
      <point x="436" y="522" type="line"/>
      <point x="436" y="630" type="line"/>
      <point x="540" y="630" type="line"/>
      <point x="540" y="534" type="line" smooth="yes"/>
      <point x="540" y="490"/>
      <point x="506" y="451"/>
      <point x="467" y="449" type="qcurve"/>
      <point x="498" y="409"/>
      <point x="523" y="318"/>
      <point x="523" y="263" type="qcurve" smooth="yes"/>
      <point x="523" y="139"/>
      <point x="392" y="-12"/>
    </contour>
    <contour>
      <point x="347" y="607" type="qcurve" smooth="yes"/>
      <point x="341" y="607" type="line" smooth="yes"/>
      <point x="327" y="607"/>
      <point x="294" y="619"/>
      <point x="260" y="635"/>
      <point x="227" y="649"/>
      <point x="215" y="649" type="qcurve" smooth="yes"/>
      <point x="188" y="649"/>
      <point x="164" y="625" type="qcurve"/>
      <point x="119" y="679" type="line"/>
      <point x="157" y="740"/>
      <point x="217" y="740" type="qcurve" smooth="yes"/>
      <point x="234" y="740"/>
      <point x="267" y="727"/>
      <point x="301" y="712"/>
      <point x="334" y="698"/>
      <point x="349" y="698" type="qcurve" smooth="yes"/>
      <point x="375" y="698"/>
      <point x="400" y="722" type="qcurve"/>
      <point x="445" y="668" type="line"/>
      <point x="409" y="607"/>
    </contour>
  </outline>
</glyph>
<glyph name="Ygrave" format="2">
  <advance width="628"/>
  <unicode hex="1EF2"/>
  <outline>
    <contour>
      <point x="376" y="0" type="line"/>
      <point x="250" y="0" type="line"/>
      <point x="250" y="274" type="line"/>
      <point x="10" y="698" type="line"/>
      <point x="153" y="698" type="line"/>
      <point x="316" y="398" type="line"/>
      <point x="319" y="398" type="line"/>
      <point x="480" y="698" type="line"/>
      <point x="617" y="698" type="line"/>
      <point x="376" y="276" type="line"/>
    </contour>
    <contour>
      <point x="302" y="746" type="line"/>
      <point x="178" y="915" type="line"/>
      <point x="283" y="966" type="line"/>
      <point x="376" y="782" type="line"/>
    </contour>
  </outline>
</glyph>
<glyph name="emdash" format="2">
  <advance width="780"/>
  <unicode hex="2014"/>
  <outline>
    <contour>
      <point x="744" y="253" type="line"/>
      <point x="36" y="253" type="line"/>
      <point x="36" y="355" type="line"/>
      <point x="744" y="355" type="line"/>
    </contour>
  </outline>
</glyph>
<glyph name="quotedblright" format="2">
  <advance width="512"/>
  <unicode hex="201D"/>
  <outline>
    <contour>
      <point x="345" y="469" type="qcurve"/>
      <point x="262" y="469" type="line"/>
      <point x="326" y="527"/>
      <point x="348" y="597" type="qcurve"/>
      <point x="293" y="610"/>
      <point x="293" y="662" type="qcurve" smooth="yes"/>
      <point x="293" y="683" type="line" smooth="yes"/>
      <point x="293" y="747"/>
      <point x="370" y="750" type="qcurve"/>
      <point x="446" y="750"/>
      <point x="446" y="683" type="qcurve" smooth="yes"/>
      <point x="446" y="664" type="line" smooth="yes"/>
      <point x="446" y="611"/>
      <point x="388" y="506"/>
    </contour>
    <contour>
      <point x="122" y="469" type="qcurve"/>
      <point x="39" y="469" type="line"/>
      <point x="103" y="527"/>
      <point x="125" y="597" type="qcurve"/>
      <point x="71" y="607"/>
      <point x="71" y="662" type="qcurve" smooth="yes"/>
      <point x="71" y="683" type="line" smooth="yes"/>
      <point x="71" y="747"/>
      <point x="147" y="750" type="qcurve"/>
      <point x="224" y="750"/>
      <point x="224" y="685" type="qcurve" smooth="yes"/>
      <point x="224" y="664" type="line" smooth="yes"/>
      <point x="224" y="609"/>
      <point x="165" y="506"/>
    </contour>
  </outline>
</glyph>
<glyph name="daggerdbl" format="2">
  <advance width="546"/>
  <unicode hex="2021"/>
  <outline>
    <contour>
      <point x="325" y="-200" type="line"/>
      <point x="221" y="-200" type="line"/>
      <point x="221" y="24" type="line"/>
      <point x="41" y="24" type="line"/>
      <point x="41" y="115" type="line"/>
      <point x="221" y="115" type="line"/>
      <point x="221" y="425" type="line"/>
      <point x="41" y="425" type="line"/>
      <point x="41" y="516" type="line"/>
      <point x="221" y="516" type="line"/>
      <point x="221" y="740" type="line"/>
      <point x="325" y="740" type="line"/>
      <point x="325" y="516" type="line"/>
      <point x="505" y="516" type="line"/>
      <point x="505" y="425" type="line"/>
      <point x="325" y="425" type="line"/>
      <point x="325" y="115" type="line"/>
      <point x="505" y="115" type="line"/>
      <point x="505" y="24" type="line"/>
      <point x="325" y="24" type="line"/>
    </contour>
  </outline>
</glyph>
<glyph name="perthousand" format="2">
  <advance width="1353"/>
  <unicode hex="2030"/>
  <outline>
    <contour>
      <point x="1127" y="61" type="qcurve" smooth="yes"/>
      <point x="1191" y="61"/>
      <point x="1191" y="159" type="qcurve" smooth="yes"/>
      <point x="1191" y="214" type="line" smooth="yes"/>
      <point x="1191" y="311"/>
      <point x="1125" y="311" type="qcurve" smooth="yes"/>
      <point x="1061" y="311"/>
      <point x="1061" y="213" type="qcurve" smooth="yes"/>
      <point x="1061" y="159" type="line" smooth="yes"/>
      <point x="1061" y="61"/>
    </contour>
    <contour>
      <point x="229" y="387" type="qcurve" smooth="yes"/>
      <point x="292" y="387"/>
      <point x="292" y="485" type="qcurve" smooth="yes"/>
      <point x="292" y="540" type="line" smooth="yes"/>
      <point x="292" y="637"/>
      <point x="227" y="637" type="qcurve" smooth="yes"/>
      <point x="163" y="637"/>
      <point x="163" y="539" type="qcurve" smooth="yes"/>
      <point x="163" y="485" type="line" smooth="yes"/>
      <point x="163" y="387"/>
    </contour>
    <contour>
      <point x="730" y="61" type="qcurve" smooth="yes"/>
      <point x="793" y="61"/>
      <point x="793" y="159" type="qcurve" smooth="yes"/>
      <point x="793" y="214" type="line" smooth="yes"/>
      <point x="793" y="311"/>
      <point x="728" y="311" type="qcurve" smooth="yes"/>
      <point x="664" y="311"/>
      <point x="664" y="213" type="qcurve" smooth="yes"/>
      <point x="664" y="159" type="line" smooth="yes"/>
      <point x="664" y="61"/>
    </contour>
    <contour>
      <point x="1126" y="-12" type="qcurve"/>
      <point x="955" y="-8"/>
      <point x="955" y="186" type="qcurve"/>
      <point x="958" y="384"/>
      <point x="1126" y="384" type="qcurve"/>
      <point x="1297" y="381"/>
      <point x="1297" y="186" type="qcurve"/>
      <point x="1294" y="-12"/>
    </contour>
    <contour>
      <point x="227" y="314" type="qcurve"/>
      <point x="56" y="318"/>
      <point x="56" y="512" type="qcurve"/>
      <point x="59" y="710"/>
      <point x="227" y="710" type="qcurve"/>
      <point x="399" y="707"/>
      <point x="399" y="512" type="qcurve"/>
      <point x="394" y="314"/>
    </contour>
    <contour>
      <point x="292" y="0" type="line"/>
      <point x="180" y="0" type="line"/>
      <point x="664" y="698" type="line"/>
      <point x="776" y="698" type="line"/>
    </contour>
    <contour>
      <point x="729" y="-12" type="qcurve"/>
      <point x="557" y="-7"/>
      <point x="557" y="186" type="qcurve"/>
      <point x="560" y="384"/>
      <point x="729" y="384" type="qcurve"/>
      <point x="900" y="381"/>
      <point x="900" y="186" type="qcurve"/>
      <point x="895" y="-12"/>
    </contour>
  </outline>
</glyph>
<glyph name="fraction" format="2">
  <advance width="150"/>
  <unicode hex="2044"/>
  <outline>
    <contour>
      <point x="-134" y="0" type="line"/>
      <point x="-229" y="0" type="line"/>
      <point x="284" y="698" type="line"/>
      <point x="379" y="698" type="line"/>
    </contour>
  </outline>
</glyph>
<glyph name="nine.superior" format="2">
  <advance width="357"/>
  <unicode hex="2079"/>
  <outline>
    <contour>
      <point x="177" y="522" type="line" smooth="yes"/>
      <point x="237" y="522"/>
      <point x="237" y="576" type="qcurve" smooth="yes"/>
      <point x="237" y="639"/>
      <point x="181" y="639" type="qcurve" smooth="yes"/>
      <point x="176" y="639" type="line" smooth="yes"/>
      <point x="117" y="639"/>
      <point x="117" y="584" type="qcurve" smooth="yes"/>
      <point x="117" y="522"/>
      <point x="170" y="522" type="qcurve" smooth="yes"/>
    </contour>
    <contour>
      <point x="185" y="329" type="qcurve"/>
      <point x="64" y="329" type="line"/>
      <point x="218" y="421"/>
      <point x="236" y="513" type="qcurve"/>
      <point x="230" y="514" type="line"/>
      <point x="219" y="490"/>
      <point x="180" y="458"/>
      <point x="143" y="458" type="qcurve" smooth="yes"/>
      <point x="95" y="458"/>
      <point x="27" y="517"/>
      <point x="27" y="573" type="qcurve" smooth="yes"/>
      <point x="27" y="629"/>
      <point x="104" y="704"/>
      <point x="177" y="704" type="qcurve" smooth="yes"/>
      <point x="251" y="704"/>
      <point x="327" y="620"/>
      <point x="327" y="557" type="qcurve" smooth="yes"/>
      <point x="327" y="507"/>
      <point x="284" y="419"/>
      <point x="219" y="350"/>
    </contour>
  </outline>
</glyph>
<glyph name="five.inferior" format="2">
  <advance width="354"/>
  <unicode hex="2085"/>
  <outline>
    <contour>
      <point x="172" y="-6" type="qcurve" smooth="yes"/>
      <point x="69" y="-6"/>
      <point x="29" y="66" type="qcurve"/>
      <point x="92" y="114" type="line"/>
      <point x="105" y="92"/>
      <point x="141" y="62"/>
      <point x="173" y="62" type="qcurve" smooth="yes"/>
      <point x="232" y="62"/>
      <point x="233" y="119" type="qcurve"/>
      <point x="231" y="175"/>
      <point x="175" y="175" type="qcurve" smooth="yes"/>
      <point x="134" y="175"/>
      <point x="114" y="150" type="qcurve"/>
      <point x="43" y="159" type="line"/>
      <point x="57" y="369" type="line"/>
      <point x="302" y="369" type="line"/>
      <point x="302" y="296" type="line"/>
      <point x="121" y="296" type="line"/>
      <point x="112" y="182" type="line"/>
      <point x="117" y="182" type="line"/>
      <point x="128" y="212"/>
      <point x="166" y="244"/>
      <point x="202" y="244" type="qcurve" smooth="yes"/>
      <point x="252" y="244"/>
      <point x="325" y="182"/>
      <point x="325" y="126" type="qcurve" smooth="yes"/>
      <point x="325" y="70"/>
      <point x="250" y="-6"/>
    </contour>
  </outline>
</glyph>
<glyph name="nine.inferior" format="2">
  <advance width="357"/>
  <unicode hex="2089"/>
  <outline>
    <contour>
      <point x="177" y="193" type="line" smooth="yes"/>
      <point x="237" y="193"/>
      <point x="237" y="247" type="qcurve" smooth="yes"/>
      <point x="237" y="310"/>
      <point x="181" y="310" type="qcurve" smooth="yes"/>
      <point x="176" y="310" type="line" smooth="yes"/>
      <point x="117" y="310"/>
      <point x="117" y="255" type="qcurve" smooth="yes"/>
      <point x="117" y="193"/>
      <point x="170" y="193" type="qcurve" smooth="yes"/>
    </contour>
    <contour>
      <point x="185" y="0" type="qcurve"/>
      <point x="64" y="0" type="line"/>
      <point x="218" y="92"/>
      <point x="236" y="184" type="qcurve"/>
      <point x="230" y="185" type="line"/>
      <point x="217" y="158"/>
      <point x="177" y="129"/>
      <point x="143" y="129" type="qcurve" smooth="yes"/>
      <point x="95" y="129"/>
      <point x="27" y="188"/>
      <point x="27" y="244" type="qcurve" smooth="yes"/>
      <point x="27" y="300"/>
      <point x="104" y="375"/>
      <point x="177" y="375" type="qcurve" smooth="yes"/>
      <point x="251" y="375"/>
      <point x="327" y="291"/>
      <point x="327" y="228" type="qcurve" smooth="yes"/>
      <point x="327" y="154"/>
      <point x="241" y="35"/>
    </contour>
  </outline>
</glyph>
<glyph name="guarani" format="2">
  <advance width="671"/>
  <unicode hex="20B2"/>
  <outline>
    <contour>
      <point x="345" y="104" type="line" smooth="yes"/>
      <point x="407" y="104"/>
      <point x="495" y="172"/>
      <point x="495" y="243" type="qcurve" smooth="yes"/>
      <point x="495" y="276" type="line"/>
      <point x="360" y="276" type="line"/>
      <point x="330" y="104" type="line"/>
    </contour>
    <contour>
      <point x="249" y="131" type="qcurve"/>
      <point x="330" y="594" type="line"/>
      <point x="182" y="580"/>
      <point x="182" y="403" type="qcurve" smooth="yes"/>
      <point x="182" y="295" type="line" smooth="yes"/>
      <point x="182" y="177"/>
    </contour>
    <contour>
      <point x="305" y="-82" type="line"/>
      <point x="206" y="-82" type="line"/>
      <point x="225" y="25" type="line"/>
      <point x="144" y="58"/>
      <point x="53" y="222"/>
      <point x="53" y="349" type="qcurve" smooth="yes"/>
      <point x="53" y="432"/>
      <point x="94" y="560"/>
      <point x="169" y="647"/>
      <point x="276" y="693"/>
      <point x="342" y="694" type="qcurve"/>
      <point x="356" y="780" type="line"/>
      <point x="455" y="780" type="line"/>
      <point x="437" y="681" type="line"/>
      <point x="548" y="648"/>
      <point x="598" y="541" type="qcurve"/>
      <point x="500" y="492" type="line"/>
      <point x="476" y="557"/>
      <point x="413" y="583" type="qcurve"/>
      <point x="377" y="376" type="line"/>
      <point x="611" y="376" type="line"/>
      <point x="611" y="254" type="line" smooth="yes"/>
      <point x="611" y="196"/>
      <point x="571" y="105"/>
      <point x="501" y="41"/>
      <point x="406" y="6"/>
      <point x="351" y="5" type="qcurve"/>
      <point x="335" y="4" type="line"/>
      <point x="320" y="5" type="line"/>
    </contour>
  </outline>
</glyph>
<glyph name="bitcoin" format="2">
  <advance width="656"/>
  <unicode hex="20BF"/>
  <outline>
    <contour>
      <point x="400" y="124" type="line"/>
      <point x="483" y="127"/>
      <point x="483" y="198" type="qcurve" smooth="yes"/>
      <point x="483" y="230" type="line"/>
      <point x="482" y="273"/>
      <point x="426" y="303"/>
      <point x="387" y="303" type="qcurve" smooth="yes"/>
      <point x="203" y="303" type="line"/>
      <point x="203" y="124" type="line"/>
    </contour>
    <contour>
      <point x="384" y="402" type="line" smooth="yes"/>
      <point x="458" y="402"/>
      <point x="458" y="472" type="qcurve" smooth="yes"/>
      <point x="458" y="504" type="line" smooth="yes"/>
      <point x="458" y="574"/>
      <point x="378" y="574" type="qcurve" smooth="yes"/>
      <point x="203" y="574" type="line"/>
      <point x="203" y="402" type="line"/>
    </contour>
    <contour>
      <point x="440" y="-82" type="line"/>
      <point x="345" y="-82" type="line"/>
      <point x="345" y="21" type="line"/>
      <point x="281" y="21" type="line"/>
      <point x="281" y="-82" type="line"/>
      <point x="186" y="-82" type="line"/>
      <point x="186" y="21" type="line"/>
      <point x="83" y="21" type="line"/>
      <point x="83" y="677" type="line"/>
      <point x="186" y="677" type="line"/>
      <point x="186" y="780" type="line"/>
      <point x="281" y="780" type="line"/>
      <point x="281" y="677" type="line"/>
      <point x="345" y="677" type="line"/>
      <point x="345" y="780" type="line"/>
      <point x="440" y="780" type="line"/>
      <point x="440" y="676" type="line"/>
      <point x="507" y="665"/>
      <point x="583" y="578"/>
      <point x="583" y="508" type="qcurve" smooth="yes"/>
      <point x="583" y="383"/>
      <point x="459" y="368" type="qcurve"/>
      <point x="459" y="362" type="line"/>
      <point x="608" y="348"/>
      <point x="608" y="209" type="qcurve" smooth="yes"/>
      <point x="608" y="127"/>
      <point x="509" y="26"/>
      <point x="440" y="21" type="qcurve"/>
    </contour>
  </outline>
</glyph>
<glyph name="seveneighths" format="2">
  <advance width="830"/>
  <unicode hex="215E"/>
  <outline>
    <contour>
      <point x="648" y="58" type="qcurve" smooth="yes"/>
      <point x="674" y="58"/>
      <point x="706" y="80"/>
      <point x="706" y="102" type="qcurve" smooth="yes"/>
      <point x="706" y="130"/>
      <point x="683" y="157"/>
      <point x="648" y="157" type="qcurve" smooth="yes"/>
      <point x="618" y="157"/>
      <point x="591" y="133"/>
      <point x="591" y="113" type="qcurve" smooth="yes"/>
      <point x="591" y="85"/>
      <point x="614" y="58"/>
    </contour>
    <contour>
      <point x="648" y="218" type="qcurve"/>
      <point x="681" y="219"/>
      <point x="704" y="243"/>
      <point x="704" y="266" type="qcurve" smooth="yes"/>
      <point x="704" y="310"/>
      <point x="648" y="310" type="qcurve" smooth="yes"/>
      <point x="620" y="310"/>
      <point x="593" y="286"/>
      <point x="593" y="268" type="qcurve" smooth="yes"/>
      <point x="593" y="218"/>
    </contour>
    <contour>
      <point x="648" y="-6" type="qcurve" smooth="yes"/>
      <point x="573" y="-6"/>
      <point x="499" y="55"/>
      <point x="499" y="101" type="qcurve" smooth="yes"/>
      <point x="499" y="169"/>
      <point x="577" y="190" type="qcurve"/>
      <point x="577" y="194" type="line"/>
      <point x="512" y="216"/>
      <point x="512" y="277" type="qcurve" smooth="yes"/>
      <point x="512" y="318"/>
      <point x="579" y="375"/>
      <point x="648" y="375" type="qcurve" smooth="yes"/>
      <point x="717" y="375"/>
      <point x="785" y="320"/>
      <point x="785" y="277" type="qcurve" smooth="yes"/>
      <point x="785" y="244"/>
      <point x="748" y="203"/>
      <point x="720" y="194" type="qcurve"/>
      <point x="720" y="190" type="line"/>
      <point x="755" y="180"/>
      <point x="798" y="136"/>
      <point x="798" y="101" type="qcurve" smooth="yes"/>
      <point x="798" y="55"/>
      <point x="722" y="-6"/>
    </contour>
    <contour>
      <point x="183" y="0" type="line"/>
      <point x="88" y="0" type="line"/>
      <point x="601" y="698" type="line"/>
      <point x="696" y="698" type="line"/>
    </contour>
    <contour>
      <point x="177" y="329" type="line"/>
      <point x="85" y="329" type="line"/>
      <point x="218" y="629" type="line"/>
      <point x="22" y="629" type="line"/>
      <point x="22" y="698" type="line"/>
      <point x="305" y="698" type="line"/>
      <point x="305" y="625" type="line"/>
    </contour>
  </outline>
</glyph>
<glyph name="product" format="2">
  <advance width="719"/>
  <unicode hex="220F"/>
  <outline>
    <contour>
      <point x="593" y="-200" type="line"/>
      <point x="467" y="-200" type="line"/>
      <point x="467" y="587" type="line"/>
      <point x="251" y="587" type="line"/>
      <point x="251" y="-200" type="line"/>
      <point x="125" y="-200" type="line"/>
      <point x="125" y="587" type="line"/>
      <point x="33" y="587" type="line"/>
      <point x="33" y="698" type="line"/>
      <point x="685" y="698" type="line"/>
      <point x="685" y="587" type="line"/>
      <point x="593" y="587" type="line"/>
    </contour>
  </outline>
</glyph>
<glyph name="minus" format="2">
  <advance width="600"/>
  <unicode hex="2212"/>
  <outline>
    <contour>
      <point x="533" y="256" type="line"/>
      <point x="67" y="256" type="line"/>
      <point x="67" y="355" type="line"/>
      <point x="533" y="355" type="line"/>
    </contour>
  </outline>
</glyph>
<glyph name="greaterequal" format="2">
  <advance width="600"/>
  <unicode hex="2265"/>
  <outline>
    <contour>
      <point x="502" y="0" type="line"/>
      <point x="98" y="0" type="line"/>
      <point x="98" y="98" type="line"/>
      <point x="502" y="98" type="line"/>
    </contour>
    <contour>
      <point x="98" y="134" type="line"/>
      <point x="98" y="249" type="line"/>
      <point x="364" y="364" type="line"/>
      <point x="364" y="371" type="line"/>
      <point x="98" y="487" type="line"/>
      <point x="98" y="602" type="line"/>
      <point x="502" y="412" type="line"/>
      <point x="502" y="323" type="line"/>
    </contour>
  </outline>
</glyph>
<glyph name="uniF6D7" format="2">
  <unicode hex="F6D7"/>
  <outline>
    <contour>
      <point x="110" y="587" type="qcurve" smooth="yes"/>
      <point x="30" y="587"/>
      <point x="30" y="650" type="qcurve" smooth="yes"/>
      <point x="30" y="675" type="line" smooth="yes"/>
      <point x="30" y="738"/>
      <point x="110" y="738" type="qcurve" smooth="yes"/>
      <point x="190" y="738"/>
      <point x="190" y="675" type="qcurve" smooth="yes"/>
      <point x="190" y="650" type="line" smooth="yes"/>
      <point x="190" y="587"/>
    </contour>
    <contour>
      <point x="10" y="733" type="line"/>
      <point x="-69" y="772" type="line"/>
      <point x="30" y="966" type="line"/>
      <point x="144" y="909" type="line"/>
    </contour>
    <contour>
      <point x="-110" y="587" type="qcurve" smooth="yes"/>
      <point x="-190" y="587"/>
      <point x="-190" y="650" type="qcurve" smooth="yes"/>
      <point x="-190" y="675" type="line" smooth="yes"/>
      <point x="-190" y="738"/>
      <point x="-110" y="738" type="qcurve" smooth="yes"/>
      <point x="-30" y="738"/>
      <point x="-30" y="675" type="qcurve" smooth="yes"/>
      <point x="-30" y="650" type="line" smooth="yes"/>
      <point x="-30" y="587"/>
    </contour>
  </outline>
</glyph>
<glyph name="ff" format="2">
  <advance width="652"/>
  <unicode hex="FB00"/>
  <outline>
    <contour>
      <point x="224" y="0" type="line"/>
      <point x="102" y="0" type="line"/>
      <point x="102" y="424" type="line"/>
      <point x="24" y="424" type="line"/>
      <point x="24" y="522" type="line"/>
      <point x="102" y="522" type="line"/>
      <point x="102" y="600" type="line" smooth="yes"/>
      <point x="102" y="664"/>
      <point x="170" y="740"/>
      <point x="242" y="740" type="qcurve" smooth="yes"/>
      <point x="331" y="740" type="line"/>
      <point x="331" y="642" type="line"/>
      <point x="224" y="642" type="line"/>
      <point x="224" y="522" type="line"/>
      <point x="407" y="522" type="line"/>
      <point x="407" y="600" type="line" smooth="yes"/>
      <point x="407" y="664"/>
      <point x="475" y="740"/>
      <point x="547" y="740" type="qcurve" smooth="yes"/>
      <point x="636" y="740" type="line"/>
      <point x="636" y="642" type="line"/>
      <point x="529" y="642" type="line"/>
      <point x="529" y="522" type="line"/>
      <point x="636" y="522" type="line"/>
      <point x="636" y="424" type="line"/>
      <point x="529" y="424" type="line"/>
      <point x="529" y="0" type="line"/>
      <point x="407" y="0" type="line"/>
      <point x="407" y="424" type="line"/>
      <point x="224" y="424" type="line"/>
    </contour>
  </outline>
</glyph>
<glyph name="eight.subs" format="2">
  <advance width="363"/>
  <outline>
    <contour>
      <point x="182" y="528" type="qcurve" smooth="yes"/>
      <point x="207" y="528"/>
      <point x="240" y="550"/>
      <point x="240" y="572" type="qcurve" smooth="yes"/>
      <point x="240" y="600"/>
      <point x="216" y="627"/>
      <point x="182" y="627" type="qcurve" smooth="yes"/>
      <point x="124" y="627"/>
      <point x="124" y="583" type="qcurve" smooth="yes"/>
      <point x="124" y="555"/>
      <point x="147" y="528"/>
    </contour>
    <contour>
      <point x="182" y="688" type="qcurve"/>
      <point x="214" y="689"/>
      <point x="237" y="713"/>
      <point x="237" y="736" type="qcurve" smooth="yes"/>
      <point x="237" y="780"/>
      <point x="182" y="780" type="qcurve" smooth="yes"/>
      <point x="153" y="780"/>
      <point x="126" y="756"/>
      <point x="126" y="738" type="qcurve" smooth="yes"/>
      <point x="126" y="688"/>
    </contour>
    <contour>
      <point x="182" y="464" type="qcurve" smooth="yes"/>
      <point x="107" y="464"/>
      <point x="32" y="525"/>
      <point x="32" y="571" type="qcurve" smooth="yes"/>
      <point x="32" y="639"/>
      <point x="111" y="660" type="qcurve"/>
      <point x="111" y="664" type="line"/>
      <point x="45" y="685"/>
      <point x="45" y="747" type="qcurve" smooth="yes"/>
      <point x="45" y="788"/>
      <point x="112" y="845"/>
      <point x="182" y="845" type="qcurve" smooth="yes"/>
      <point x="250" y="845"/>
      <point x="319" y="790"/>
      <point x="319" y="747" type="qcurve" smooth="yes"/>
      <point x="319" y="714"/>
      <point x="282" y="673"/>
      <point x="253" y="664" type="qcurve"/>
      <point x="253" y="660" type="line"/>
      <point x="288" y="650"/>
      <point x="331" y="606"/>
      <point x="331" y="571" type="qcurve" smooth="yes"/>
      <point x="331" y="524"/>
      <point x="254" y="464"/>
    </contour>
  </outline>
</glyph>
<glyph name="eight.sups" format="2">
  <advance width="363"/>
  <outline>
    <contour>
      <point x="182" y="-330" type="qcurve" smooth="yes"/>
      <point x="207" y="-330"/>
      <point x="240" y="-308"/>
      <point x="240" y="-286" type="qcurve" smooth="yes"/>
      <point x="240" y="-258"/>
      <point x="216" y="-231"/>
      <point x="182" y="-231" type="qcurve" smooth="yes"/>
      <point x="124" y="-231"/>
      <point x="124" y="-275" type="qcurve" smooth="yes"/>
      <point x="124" y="-303"/>
      <point x="147" y="-330"/>
    </contour>
    <contour>
      <point x="182" y="-170" type="qcurve"/>
      <point x="214" y="-169"/>
      <point x="237" y="-145"/>
      <point x="237" y="-122" type="qcurve" smooth="yes"/>
      <point x="237" y="-78"/>
      <point x="182" y="-78" type="qcurve" smooth="yes"/>
      <point x="153" y="-78"/>
      <point x="126" y="-102"/>
      <point x="126" y="-120" type="qcurve" smooth="yes"/>
      <point x="126" y="-170"/>
    </contour>
    <contour>
      <point x="182" y="-394" type="qcurve" smooth="yes"/>
      <point x="107" y="-394"/>
      <point x="32" y="-333"/>
      <point x="32" y="-287" type="qcurve" smooth="yes"/>
      <point x="32" y="-219"/>
      <point x="111" y="-198" type="qcurve"/>
      <point x="111" y="-194" type="line"/>
      <point x="45" y="-173"/>
      <point x="45" y="-111" type="qcurve" smooth="yes"/>
      <point x="45" y="-70"/>
      <point x="112" y="-13"/>
      <point x="182" y="-13" type="qcurve" smooth="yes"/>
      <point x="250" y="-13"/>
      <point x="319" y="-68"/>
      <point x="319" y="-111" type="qcurve" smooth="yes"/>
      <point x="319" y="-144"/>
      <point x="282" y="-185"/>
      <point x="253" y="-194" type="qcurve"/>
      <point x="253" y="-198" type="line"/>
      <point x="288" y="-208"/>
      <point x="331" y="-252"/>
      <point x="331" y="-287" type="qcurve" smooth="yes"/>
      <point x="331" y="-334"/>
      <point x="254" y="-394"/>
    </contour>
  </outline>
</glyph>
<glyph name="seven.subs" format="2">
  <advance width="329"/>
  <outline>
    <contour>
      <point x="177" y="470" type="line"/>
      <point x="85" y="470" type="line"/>
      <point x="218" y="770" type="line"/>
      <point x="22" y="770" type="line"/>
      <point x="22" y="839" type="line"/>
      <point x="305" y="839" type="line"/>
      <point x="305" y="766" type="line"/>
    </contour>
  </outline>
</glyph>
<glyph name="two.sups" format="2">
  <advance width="346"/>
  <outline>
    <contour>
      <point x="317" y="-388" type="line"/>
      <point x="35" y="-388" type="line"/>
      <point x="35" y="-312" type="line"/>
      <point x="152" y="-220" type="line" smooth="yes"/>
      <point x="185" y="-195"/>
      <point x="217" y="-157"/>
      <point x="217" y="-132" type="qcurve" smooth="yes"/>
      <point x="217" y="-86"/>
      <point x="165" y="-86" type="qcurve" smooth="yes"/>
      <point x="117" y="-86"/>
      <point x="102" y="-136" type="qcurve"/>
      <point x="26" y="-108" type="line"/>
      <point x="55" y="-13"/>
      <point x="173" y="-13" type="qcurve" smooth="yes"/>
      <point x="241" y="-13"/>
      <point x="310" y="-77"/>
      <point x="310" y="-125" type="qcurve" smooth="yes"/>
      <point x="310" y="-205"/>
      <point x="205" y="-268" type="qcurve"/>
      <point x="130" y="-318" type="line"/>
      <point x="317" y="-318" type="line"/>
    </contour>
  </outline>
</glyph>
